AcariSans-BoldItalic.ufo
<glyph name="twosuperior" format="2">
  <advance width="921"/>
  <unicode hex="00B2"/>
  <outline>
    <contour>
      <point x="843.257" y="936" type="line"/>
      <point x="884.217" y="1109.57" type="line"/>
      <point x="430.018" y="1109.57" type="line"/>
      <point x="644.086" y="1205.9"/>
      <point x="973.608" y="1436.05"/>
      <point x="973.305" y="1688.64" type="curve" smooth="yes"/>
      <point x="973.12" y="1842.14"/>
      <point x="848.431" y="1913.92"/>
      <point x="708.089" y="1913.92" type="curve" smooth="yes"/>
      <point x="513.394" y="1913.92"/>
      <point x="346.358" y="1764.03"/>
      <point x="293.989" y="1580.31" type="curve"/>
      <point x="456.139" y="1552.8" type="line"/>
      <point x="488.803" y="1649.76"/>
      <point x="557.677" y="1738.82"/>
      <point x="677.369" y="1738.82" type="curve" smooth="yes"/>
      <point x="745.977" y="1738.82"/>
      <point x="779.716" y="1711.17"/>
      <point x="779.769" y="1655.87" type="curve" smooth="yes"/>
      <point x="779.962" y="1453.24"/>
      <point x="293.162" y="1173.98"/>
      <point x="134.649" y="1094.72" type="curve"/>
      <point x="104.953" y="936" type="line"/>
    </contour>
  </outline>
</glyph>
<glyph name="threesuperior" format="2">
  <advance width="921"/>
  <unicode hex="00B3"/>
  <outline>
    <contour>
      <point x="558.992" y="911.088" type="curve" smooth="yes"/>
      <point x="774.032" y="911.088"/>
      <point x="1005.46" y="1037.04"/>
      <point x="1005.46" y="1275.63" type="curve" smooth="yes"/>
      <point x="1005.46" y="1356.53"/>
      <point x="972.688" y="1414.9"/>
      <point x="906.128" y="1451.76" type="curve"/>
      <point x="1007.5" y="1518.32"/>
      <point x="1057.68" y="1616.62"/>
      <point x="1057.68" y="1702.64" type="curve" smooth="yes"/>
      <point x="1057.68" y="1846"/>
      <point x="934.8" y="1924.85"/>
      <point x="785.296" y="1924.85" type="curve" smooth="yes"/>
      <point x="602" y="1924.85"/>
      <point x="450.448" y="1812.21"/>
      <point x="404.368" y="1634.03" type="curve"/>
      <point x="564.112" y="1611.5" type="line"/>
      <point x="588.688" y="1694.45"/>
      <point x="671.632" y="1742.58"/>
      <point x="754.576" y="1742.58" type="curve" smooth="yes"/>
      <point x="821.136" y="1742.58"/>
      <point x="869.264" y="1718"/>
      <point x="869.264" y="1671.92" type="curve" smooth="yes"/>
      <point x="869.264" y="1585.9"/>
      <point x="780.176" y="1533.68"/>
      <point x="703.376" y="1533.68" type="curve" smooth="yes"/>
      <point x="608.144" y="1533.68" type="line"/>
      <point x="571.28" y="1359.6" type="line"/>
      <point x="674.704" y="1359.6" type="line" smooth="yes"/>
      <point x="763.792" y="1359.6"/>
      <point x="824.208" y="1331.95"/>
      <point x="824.208" y="1270.51" type="curve" smooth="yes"/>
      <point x="824.208" y="1151.73"/>
      <point x="682.896" y="1091.31"/>
      <point x="581.52" y="1091.31" type="curve" smooth="yes"/>
      <point x="494.48" y="1091.31"/>
      <point x="429.968" y="1127.15"/>
      <point x="429.968" y="1203.95" type="curve" smooth="yes"/>
      <point x="429.968" y="1217.26"/>
      <point x="432.016" y="1229.55"/>
      <point x="435.088" y="1243.89" type="curve"/>
      <point x="251.792" y="1243.89" type="line"/>
      <point x="244.624" y="1218.29"/>
      <point x="240.528" y="1191.66"/>
      <point x="240.528" y="1164.02" type="curve" smooth="yes"/>
      <point x="240.528" y="994.032"/>
      <point x="387.984" y="911.088"/>
    </contour>
  </outline>
</glyph>
<glyph name="four.superior" format="2">
  <advance width="921"/>
  <unicode hex="2074"/>
  <outline>
    <contour>
      <point x="799.296" y="935.664" type="line"/>
      <point x="849.472" y="1153.78" type="line"/>
      <point x="1003.07" y="1153.78" type="line"/>
      <point x="1038.91" y="1332.98" type="line"/>
      <point x="891.456" y="1332.98" type="line"/>
      <point x="1022.53" y="1900.27" type="line"/>
      <point x="863.808" y="1900.27" type="line"/>
      <point x="245.312" y="1267.44" type="line"/>
      <point x="223.808" y="1153.78" type="line"/>
      <point x="656.96" y="1153.78" type="line"/>
      <point x="606.784" y="935.664" type="line"/>
    </contour>
    <contour>
      <point x="698.944" y="1332.98" type="line"/>
      <point x="476.736" y="1332.98" type="line"/>
      <point x="769.6" y="1637.1" type="line"/>
    </contour>
  </outline>
</glyph>
<glyph name="six.superior" format="2">
  <advance width="921"/>
  <unicode hex="2076"/>
  <outline>
    <contour>
      <point x="554.184" y="922.352" type="curve" smooth="yes"/>
      <point x="768.365" y="922.352"/>
      <point x="1008.41" y="1100.96"/>
      <point x="1006.79" y="1327.86" type="curve" smooth="yes"/>
      <point x="1005.58" y="1497.97"/>
      <point x="873.558" y="1601.62"/>
      <point x="707.863" y="1601.8" type="curve" smooth="yes"/>
      <point x="687.616" y="1601.83"/>
      <point x="666.868" y="1600.3"/>
      <point x="645.793" y="1597.17" type="curve"/>
      <point x="644.49" y="1540.03" type="line"/>
      <point x="984.264" y="1900.27" type="line"/>
      <point x="764.104" y="1900.27" type="line"/>
      <point x="348.36" y="1432.3" type="line" smooth="yes"/>
      <point x="285.316" y="1361.34"/>
      <point x="249.042" y="1272.56"/>
      <point x="249.032" y="1193.71" type="curve" smooth="yes"/>
      <point x="249.01" y="1021.56"/>
      <point x="392.316" y="922.352"/>
    </contour>
    <contour>
      <point x="579.784" y="1104.62" type="curve" smooth="yes"/>
      <point x="509.203" y="1104.62"/>
      <point x="438.472" y="1144.14"/>
      <point x="438.472" y="1222.38" type="curve"/>
      <point x="448.279" y="1340.21"/>
      <point x="564.566" y="1429.38"/>
      <point x="679.112" y="1429.23" type="curve" smooth="yes"/>
      <point x="748.168" y="1429.14"/>
      <point x="817.492" y="1389.79"/>
      <point x="817.352" y="1313.52" type="curve" smooth="yes"/>
      <point x="817.14" y="1198.3"/>
      <point x="688.245" y="1104.62"/>
    </contour>
  </outline>
</glyph>
<glyph name="seven.superior" format="2">
  <advance width="921"/>
  <unicode hex="2077"/>
  <outline>
    <contour>
      <point x="476.88" y="935.664" type="line"/>
      <point x="1104.59" y="1800.94" type="line"/>
      <point x="1125.07" y="1900.27" type="line"/>
      <point x="428.752" y="1900.27" type="line"/>
      <point x="392.912" y="1723.12" type="line"/>
      <point x="877.264" y="1723.12" type="line"/>
      <point x="282.32" y="935.664" type="line"/>
    </contour>
  </outline>
</glyph>
<glyph name="eight.superior" format="2">
  <advance width="921"/>
  <unicode hex="2078"/>
  <outline>
    <contour>
      <point x="545.995" y="911.088" type="curve" smooth="yes"/>
      <point x="759.086" y="911.274"/>
      <point x="1025.23" y="1021.56"/>
      <point x="1025.23" y="1269.49" type="curve" smooth="yes"/>
      <point x="1025.23" y="1344.24"/>
      <point x="991.435" y="1408.75"/>
      <point x="921.803" y="1448.69" type="curve"/>
      <point x="1023.18" y="1513.2"/>
      <point x="1081.55" y="1603.31"/>
      <point x="1081.55" y="1704.69" type="curve" smooth="yes"/>
      <point x="1081.55" y="1843.95"/>
      <point x="950.475" y="1924.85"/>
      <point x="787.659" y="1924.85" type="curve" smooth="yes"/>
      <point x="603.104" y="1924.85"/>
      <point x="373.963" y="1818.57"/>
      <point x="373.963" y="1607.41" type="curve" smooth="yes"/>
      <point x="373.963" y="1549.04"/>
      <point x="393.419" y="1501.94"/>
      <point x="432.331" y="1467.12" type="curve"/>
      <point x="285.899" y="1394.42"/>
      <point x="202.824" y="1277.68"/>
      <point x="202.955" y="1153.78" type="curve" smooth="yes"/>
      <point x="203.152" y="967.517"/>
      <point x="392.928" y="910.954"/>
    </contour>
    <contour>
      <point x="686.283" y="1530.61" type="curve" smooth="yes"/>
      <point x="602.315" y="1530.61"/>
      <point x="560.347" y="1557.23"/>
      <point x="560.331" y="1606.38" type="curve" smooth="yes"/>
      <point x="560.299" y="1700.33"/>
      <point x="691.407" y="1745.65"/>
      <point x="768.203" y="1745.65" type="curve" smooth="yes"/>
      <point x="842.955" y="1745.65"/>
      <point x="895.144" y="1722.1"/>
      <point x="895.179" y="1672.94" type="curve" smooth="yes"/>
      <point x="895.248" y="1576.36"/>
      <point x="765.372" y="1530.61"/>
    </contour>
    <contour>
      <point x="567.499" y="1086.19" type="curve" smooth="yes"/>
      <point x="504.956" y="1086.27"/>
      <point x="395.467" y="1100.79"/>
      <point x="395.467" y="1183.47" type="curve" smooth="yes"/>
      <point x="395.467" y="1311.86"/>
      <point x="563.244" y="1364.72"/>
      <point x="665.803" y="1364.72" type="curve" smooth="yes"/>
      <point x="765.131" y="1364.72"/>
      <point x="836.811" y="1332.98"/>
      <point x="836.811" y="1270.51" type="curve" smooth="yes"/>
      <point x="836.811" y="1144.14"/>
      <point x="670.646" y="1086.06"/>
    </contour>
  </outline>
</glyph>
<glyph name="nine.superior" format="2">
  <advance width="921"/>
  <unicode hex="2079"/>
  <outline>
    <contour>
      <point x="574.424" y="935.664" type="line"/>
      <point x="990.168" y="1403.63" type="line" smooth="yes"/>
      <point x="1056.14" y="1477.89"/>
      <point x="1089.5" y="1557.23"/>
      <point x="1089.5" y="1643.25" type="curve" smooth="yes"/>
      <point x="1089.5" y="1791.73"/>
      <point x="972.76" y="1914.61"/>
      <point x="784.344" y="1914.61" type="curve" smooth="yes"/>
      <point x="567.422" y="1914.61"/>
      <point x="331.57" y="1736.66"/>
      <point x="331.736" y="1510.98" type="curve" smooth="yes"/>
      <point x="331.857" y="1345.71"/>
      <point x="447.402" y="1234.87"/>
      <point x="628.733" y="1234.78" type="curve" smooth="yes"/>
      <point x="657.944" y="1234.77"/>
      <point x="688.863" y="1237.63"/>
      <point x="721.282" y="1243.59" type="curve"/>
      <point x="717.974" y="1320.79" type="line"/>
      <point x="353.24" y="935.664" type="line"/>
    </contour>
    <contour>
      <point x="659.416" y="1406.7" type="curve" smooth="yes"/>
      <point x="588.733" y="1406.82"/>
      <point x="520.152" y="1447.62"/>
      <point x="520.152" y="1523.44" type="curve" smooth="yes"/>
      <point x="520.152" y="1640.52"/>
      <point x="642.924" y="1731.31"/>
      <point x="758.744" y="1731.31" type="curve" smooth="yes"/>
      <point x="829.944" y="1731.31"/>
      <point x="900.079" y="1693.29"/>
      <point x="900.056" y="1614.58" type="curve" smooth="yes"/>
      <point x="900.023" y="1501.14"/>
      <point x="767.179" y="1406.53"/>
    </contour>
  </outline>
</glyph>
<glyph name="two.inferior" format="2">
  <advance width="921"/>
  <unicode hex="2082"/>
  <outline>
    <contour>
      <point x="611.32" y="-464.744" type="line"/>
      <point x="652.28" y="-291.176" type="line"/>
      <point x="198.082" y="-291.172" type="line"/>
      <point x="197.166" y="-287.18" type="line"/>
      <point x="262.136" y="-257.944"/>
      <point x="338.293" y="-221.844"/>
      <point x="415.736" y="-163.688" type="curve" smooth="yes"/>
      <point x="650.245" y="12.4151"/>
      <point x="741.547" y="139.032"/>
      <point x="741.368" y="287.896" type="curve" smooth="yes"/>
      <point x="741.183" y="441.393"/>
      <point x="616.494" y="513.176"/>
      <point x="476.152" y="513.176" type="curve" smooth="yes"/>
      <point x="281.457" y="513.176"/>
      <point x="114.421" y="363.288"/>
      <point x="62.0528" y="179.568" type="curve"/>
      <point x="224.202" y="152.06" type="line"/>
      <point x="256.866" y="249.016"/>
      <point x="325.74" y="338.072"/>
      <point x="445.432" y="338.072" type="curve" smooth="yes"/>
      <point x="514.04" y="338.072"/>
      <point x="547.779" y="310.424"/>
      <point x="547.832" y="255.128" type="curve" smooth="yes"/>
      <point x="547.947" y="134.796"/>
      <point x="404.917" y="20.5768"/>
      <point x="318.456" y="-43.88" type="curve" smooth="yes"/>
      <point x="188.07" y="-141.083"/>
      <point x="48.2625" y="-233.249"/>
      <point x="-97.2881" y="-306.024" type="curve"/>
      <point x="-126.984" y="-464.744" type="line"/>
    </contour>
  </outline>
</glyph>
<glyph name="three.inferior" format="2">
  <advance width="921"/>
  <unicode hex="2083"/>
  <outline>
    <contour>
      <point x="242.992" y="-489.32" type="curve" smooth="yes"/>
      <point x="457.316" y="-489.142"/>
      <point x="689.456" y="-363.209"/>
      <point x="689.456" y="-124.776" type="curve" smooth="yes"/>
      <point x="689.456" y="-43.8801"/>
      <point x="656.688" y="14.488"/>
      <point x="590.128" y="49.304" type="curve"/>
      <point x="590.128" y="54.4" type="line"/>
      <point x="691.504" y="118.912"/>
      <point x="741.68" y="216.216"/>
      <point x="741.68" y="302.232" type="curve" smooth="yes"/>
      <point x="741.68" y="445.592"/>
      <point x="618.8" y="524.44"/>
      <point x="469.296" y="524.44" type="curve" smooth="yes"/>
      <point x="284.647" y="524.44"/>
      <point x="135.143" y="412.929"/>
      <point x="88.368" y="233.624" type="curve"/>
      <point x="248.112" y="211.096" type="line"/>
      <point x="272.145" y="293.494"/>
      <point x="355.513" y="342.168"/>
      <point x="438.576" y="342.168" type="curve" smooth="yes"/>
      <point x="505.136" y="342.168"/>
      <point x="553.264" y="317.592"/>
      <point x="553.264" y="271.512" type="curve" smooth="yes"/>
      <point x="553.264" y="185.732"/>
      <point x="464.138" y="133.272"/>
      <point x="387.376" y="133.272" type="curve" smooth="yes"/>
      <point x="292.144" y="133.272" type="line"/>
      <point x="255.28" y="-40.808" type="line"/>
      <point x="358.704" y="-40.808" type="line" smooth="yes"/>
      <point x="447.792" y="-40.808"/>
      <point x="508.279" y="-68.4561"/>
      <point x="508.208" y="-129.896" type="curve" smooth="yes"/>
      <point x="508.071" y="-249.23"/>
      <point x="366.679" y="-309.096"/>
      <point x="265.52" y="-309.096" type="curve" smooth="yes"/>
      <point x="178.48" y="-309.096"/>
      <point x="113.968" y="-273.256"/>
      <point x="113.968" y="-196.456" type="curve" smooth="yes"/>
      <point x="113.968" y="-183.144"/>
      <point x="116.016" y="-170.856"/>
      <point x="119.088" y="-156.52" type="curve"/>
      <point x="-64.208" y="-156.52" type="line"/>
      <point x="-71.376" y="-182.12"/>
      <point x="-75.472" y="-208.744"/>
      <point x="-75.472" y="-236.392" type="curve" smooth="yes"/>
      <point x="-75.472" y="-406.376"/>
      <point x="71.9841" y="-489.462"/>
    </contour>
  </outline>
</glyph>
<glyph name="four.inferior" format="2">
  <advance width="921"/>
  <unicode hex="2084"/>
  <outline>
    <contour>
      <point x="487.296" y="-464.744" type="line"/>
      <point x="537.472" y="-246.632" type="line"/>
      <point x="691.072" y="-246.632" type="line"/>
      <point x="726.912" y="-67.432" type="line"/>
      <point x="579.456" y="-67.432" type="line"/>
      <point x="710.528" y="499.864" type="line"/>
      <point x="551.808" y="499.864" type="line"/>
      <point x="-66.688" y="-132.968" type="line"/>
      <point x="-88.192" y="-246.632" type="line"/>
      <point x="344.96" y="-246.632" type="line"/>
      <point x="294.784" y="-464.744" type="line"/>
    </contour>
    <contour>
      <point x="386.944" y="-67.432" type="line"/>
      <point x="164.736" y="-67.432" type="line"/>
      <point x="457.6" y="236.696" type="line"/>
    </contour>
  </outline>
</glyph>
<glyph name="five.inferior" format="2">
  <advance width="921"/>
  <unicode hex="2085"/>
  <outline>
    <contour>
      <point x="247.04" y="-478.056" type="curve" smooth="yes"/>
      <point x="521.683" y="-478.017"/>
      <point x="701.503" y="-315.208"/>
      <point x="701.696" y="-66.4081" type="curve" smooth="yes"/>
      <point x="701.819" y="91.7998"/>
      <point x="585.678" y="204.952"/>
      <point x="423.168" y="204.952" type="curve" smooth="yes"/>
      <point x="363.734" y="204.952"/>
      <point x="309.68" y="192.213"/>
      <point x="262.4" y="167.064" type="curve"/>
      <point x="325.208" y="320.664" type="line"/>
      <point x="763.136" y="320.664" type="line"/>
      <point x="798.976" y="499.864" type="line"/>
      <point x="239.872" y="499.864" type="line"/>
      <point x="17.664" y="-15.2081" type="line"/>
      <point x="180.48" y="-58.2161" type="line"/>
      <point x="226.453" y="-6.11294"/>
      <point x="304.229" y="29.848"/>
      <point x="370.944" y="29.848" type="curve" smooth="yes"/>
      <point x="455.496" y="29.848"/>
      <point x="507.188" y="-12.5167"/>
      <point x="507.136" y="-81.7681" type="curve" smooth="yes"/>
      <point x="507.036" y="-213.44"/>
      <point x="411.605" y="-301.878"/>
      <point x="269.568" y="-301.928" type="curve" smooth="yes"/>
      <point x="176.132" y="-301.961"/>
      <point x="129.28" y="-248.952"/>
      <point x="129.28" y="-143.208" type="curve"/>
      <point x="-57.0881" y="-170.856" type="line"/>
      <point x="-56.9983" y="-349.319"/>
      <point x="70.4762" y="-478.081"/>
    </contour>
  </outline>
</glyph>
<glyph name="six.inferior" format="2">
  <advance width="921"/>
  <unicode hex="2086"/>
  <outline>
    <contour>
      <point x="253.184" y="-478.056" type="curve" smooth="yes"/>
      <point x="469.02" y="-478.024"/>
      <point x="705.792" y="-302.103"/>
      <point x="705.792" y="-72.552" type="curve" smooth="yes"/>
      <point x="705.792" y="94.1547"/>
      <point x="597.308" y="196.76"/>
      <point x="421.05" y="196.76" type="curve" smooth="yes"/>
      <point x="404.031" y="196.76"/>
      <point x="385.507" y="194.303"/>
      <point x="367.974" y="189.216" type="curve"/>
      <point x="683.264" y="499.864" type="line"/>
      <point x="463.104" y="499.864" type="line"/>
      <point x="47.36" y="31.8959" type="line" smooth="yes"/>
      <point x="-15.6842" y="-39.0677"/>
      <point x="-51.958" y="-127.848"/>
      <point x="-51.968" y="-206.696" type="curve" smooth="yes"/>
      <point x="-51.99" y="-381.072"/>
      <point x="90.1749" y="-478.08"/>
    </contour>
    <contour>
      <point x="278.784" y="-295.784" type="curve" smooth="yes"/>
      <point x="207.048" y="-295.784"/>
      <point x="137.472" y="-257.425"/>
      <point x="137.472" y="-178.024" type="curve" smooth="yes"/>
      <point x="137.472" y="-60.4865"/>
      <point x="264.348" y="28.7137"/>
      <point x="378.112" y="28.8239" type="curve" smooth="yes"/>
      <point x="446.085" y="28.8897"/>
      <point x="516.352" y="-12.028"/>
      <point x="516.352" y="-86.8881" type="curve" smooth="yes"/>
      <point x="516.352" y="-203.241"/>
      <point x="387.494" y="-295.784"/>
    </contour>
  </outline>
</glyph>
<glyph name="seven.inferior" format="2">
  <advance width="921"/>
  <unicode hex="2087"/>
  <outline>
    <contour>
      <point x="175.88" y="-464.744" type="line"/>
      <point x="803.592" y="400.536" type="line"/>
      <point x="824.072" y="499.864" type="line"/>
      <point x="127.752" y="499.864" type="line"/>
      <point x="91.912" y="322.712" type="line"/>
      <point x="576.264" y="322.712" type="line"/>
      <point x="-18.68" y="-464.744" type="line"/>
    </contour>
  </outline>
</glyph>
<glyph name="eight.inferior" format="2">
  <advance width="921"/>
  <unicode hex="2088"/>
  <outline>
    <contour>
      <point x="244.712" y="-489.32" type="curve" smooth="yes"/>
      <point x="457.804" y="-489.134"/>
      <point x="723.944" y="-378.844"/>
      <point x="723.944" y="-130.92" type="curve" smooth="yes"/>
      <point x="723.944" y="-56.168"/>
      <point x="690.152" y="8.34401"/>
      <point x="620.52" y="48.28" type="curve"/>
      <point x="721.896" y="112.792"/>
      <point x="780.264" y="202.904"/>
      <point x="780.264" y="304.28" type="curve" smooth="yes"/>
      <point x="780.264" y="443.544"/>
      <point x="649.192" y="524.44"/>
      <point x="486.376" y="524.44" type="curve" smooth="yes"/>
      <point x="301.822" y="524.44"/>
      <point x="72.68" y="418.167"/>
      <point x="72.68" y="207" type="curve" smooth="yes"/>
      <point x="72.68" y="148.632"/>
      <point x="92.136" y="101.528"/>
      <point x="131.048" y="66.712" type="curve"/>
      <point x="-15.384" y="-5.99201"/>
      <point x="-98.459" y="-122.728"/>
      <point x="-98.328" y="-246.632" type="curve" smooth="yes"/>
      <point x="-98.131" y="-432.892"/>
      <point x="91.6448" y="-489.454"/>
    </contour>
    <contour>
      <point x="385" y="130.2" type="curve" smooth="yes"/>
      <point x="301.032" y="130.2"/>
      <point x="259.064" y="156.824"/>
      <point x="259.048" y="205.976" type="curve" smooth="yes"/>
      <point x="259.016" y="299.922"/>
      <point x="390.124" y="345.24"/>
      <point x="466.92" y="345.24" type="curve" smooth="yes"/>
      <point x="541.672" y="345.24"/>
      <point x="593.861" y="321.688"/>
      <point x="593.896" y="272.536" type="curve" smooth="yes"/>
      <point x="593.965" y="175.956"/>
      <point x="464.089" y="130.2"/>
    </contour>
    <contour>
      <point x="266.216" y="-314.216" type="curve" smooth="yes"/>
      <point x="203.673" y="-314.135"/>
      <point x="94.184" y="-299.615"/>
      <point x="94.184" y="-216.936" type="curve" smooth="yes"/>
      <point x="94.184" y="-88.5484"/>
      <point x="261.961" y="-35.6881"/>
      <point x="364.52" y="-35.6881" type="curve" smooth="yes"/>
      <point x="463.848" y="-35.6881"/>
      <point x="535.528" y="-67.4321"/>
      <point x="535.528" y="-129.896" type="curve" smooth="yes"/>
      <point x="535.528" y="-256.266"/>
      <point x="369.363" y="-314.35"/>
    </contour>
  </outline>
</glyph>
<glyph name="brevecomb_acutecomb.case" format="2">
  <anchor x="-473" y="1191.98" name="_top"/>
  <outline>
    <contour>
      <point x="-391.134" y="1191.94" type="curve" smooth="yes"/>
      <point x="-170.974" y="1191.94"/>
      <point x="-65.7437" y="1252.7"/>
      <point x="-38.7953" y="1376.27" type="curve"/>
      <point x="-210.827" y="1376.27" type="line"/>
      <point x="-229.519" y="1320.28"/>
      <point x="-312.306" y="1289.56"/>
      <point x="-395.25" y="1289.56" type="curve" smooth="yes"/>
      <point x="-467.954" y="1289.56"/>
      <point x="-505.875" y="1309.36"/>
      <point x="-510.037" y="1348.96" type="curve" smooth="yes"/>
      <point x="-510.97" y="1357.83"/>
      <point x="-510.951" y="1367.39"/>
      <point x="-508.811" y="1376.27" type="curve"/>
      <point x="-680.843" y="1376.27" type="line"/>
      <point x="-685.859" y="1355.78"/>
      <point x="-687.137" y="1338.72"/>
      <point x="-685.702" y="1325.06" type="curve" smooth="yes"/>
      <point x="-677.091" y="1243.14"/>
      <point x="-584.67" y="1191.94"/>
    </contour>
    <contour>
      <point x="-296.735" y="1354.78" type="line"/>
      <point x="63.0447" y="1565.73" type="line"/>
      <point x="-207.291" y="1565.73" type="line"/>
      <point x="-485.151" y="1354.78" type="line"/>
    </contour>
  </outline>
</glyph>
<glyph name="brevecomb_gravecomb.case" format="2">
  <anchor x="-443" y="1191.98" name="_top"/>
  <outline>
    <contour>
      <point x="-391.134" y="1191.94" type="curve" smooth="yes"/>
      <point x="-170.974" y="1191.94"/>
      <point x="-65.7437" y="1252.7"/>
      <point x="-38.7953" y="1376.27" type="curve"/>
      <point x="-210.827" y="1376.27" type="line"/>
      <point x="-229.519" y="1320.28"/>
      <point x="-312.306" y="1289.56"/>
      <point x="-395.25" y="1289.56" type="curve" smooth="yes"/>
      <point x="-467.954" y="1289.56"/>
      <point x="-505.875" y="1309.36"/>
      <point x="-510.037" y="1348.96" type="curve" smooth="yes"/>
      <point x="-510.97" y="1357.83"/>
      <point x="-510.951" y="1367.39"/>
      <point x="-508.811" y="1376.27" type="curve"/>
      <point x="-680.843" y="1376.27" type="line"/>
      <point x="-685.859" y="1355.78"/>
      <point x="-687.137" y="1338.72"/>
      <point x="-685.702" y="1325.06" type="curve" smooth="yes"/>
      <point x="-677.091" y="1243.14"/>
      <point x="-584.67" y="1191.94"/>
    </contour>
    <contour>
      <point x="-268.142" y="1375.99" type="line"/>
      <point x="-451.082" y="1586.94" type="line"/>
      <point x="-713.226" y="1586.94" type="line"/>
      <point x="-446.318" y="1375.99" type="line"/>
    </contour>
  </outline>
</glyph>
<glyph name="circumflexcomb_acutecomb.case" format="2">
  <anchor x="-553" y="1191.98" name="_top"/>
  <outline>
    <contour>
      <point x="-170.726" y="1191.94" type="line"/>
      <point x="-438.671" y="1432.25" type="line"/>
      <point x="-818.918" y="1191.94" type="line"/>
      <point x="-619.238" y="1191.94" type="line"/>
      <point x="-463.754" y="1290.93" type="line"/>
      <point x="-357.094" y="1191.94" type="line"/>
    </contour>
    <contour>
      <point x="-90.1982" y="1337.28" type="line"/>
      <point x="197.129" y="1491.33" type="line"/>
      <point x="-73.207" y="1491.33" type="line"/>
      <point x="-278.614" y="1337.28" type="line"/>
    </contour>
  </outline>
  <guideline angle="0" x="0" y="1491.33"/>
  <guideline angle="215.079" x="162" y="1548"/>
  <guideline angle="0" x="0" y="1337.32"/>
</glyph>
<glyph name="dieresiscomb_acutecomb.case" format="2">
  <anchor x="-511" y="1192" name="_top"/>
  <outline>
    <contour>
      <point x="-512.284" y="1192" type="line"/>
      <point x="-476.471" y="1346.01" type="line"/>
      <point x="-686.471" y="1346.01" type="line"/>
      <point x="-722.284" y="1192" type="line"/>
    </contour>
    <contour>
      <point x="-151.284" y="1192" type="line"/>
      <point x="-115.471" y="1346.01" type="line"/>
      <point x="-325.471" y="1346.01" type="line"/>
      <point x="-361.284" y="1192" type="line"/>
    </contour>
    <contour>
      <point x="-305.267" y="1384.63" type="line"/>
      <point x="54.5129" y="1595.59" type="line"/>
      <point x="-215.823" y="1595.59" type="line"/>
      <point x="-493.683" y="1384.63" type="line"/>
    </contour>
  </outline>
</glyph>
<glyph name="dieresiscomb_caroncomb.case" format="2">
  <anchor x="-506" y="1192" name="_top"/>
  <outline>
    <contour>
      <point x="-512.284" y="1192" type="line"/>
      <point x="-476.471" y="1346.01" type="line"/>
      <point x="-686.471" y="1346.01" type="line"/>
      <point x="-722.284" y="1192" type="line"/>
    </contour>
    <contour>
      <point x="-151.284" y="1192" type="line"/>
      <point x="-115.471" y="1346.01" type="line"/>
      <point x="-325.471" y="1346.01" type="line"/>
      <point x="-361.284" y="1192" type="line"/>
    </contour>
    <contour>
      <point x="-397.244" y="1342.63" type="line"/>
      <point x="-20.6828" y="1569.29" type="line"/>
      <point x="-217.291" y="1569.29" type="line"/>
      <point x="-375.54" y="1477.12" type="line"/>
      <point x="-479.435" y="1569.29" type="line"/>
      <point x="-668.875" y="1569.29" type="line"/>
    </contour>
  </outline>
</glyph>
<glyph name="dieresiscomb_gravecomb.case" format="2">
  <anchor x="-516" y="1192" name="_top"/>
  <outline>
    <contour>
      <point x="-512.284" y="1192" type="line"/>
      <point x="-476.471" y="1346.01" type="line"/>
      <point x="-686.471" y="1346.01" type="line"/>
      <point x="-722.284" y="1192" type="line"/>
    </contour>
    <contour>
      <point x="-151.284" y="1192" type="line"/>
      <point x="-115.471" y="1346.01" type="line"/>
      <point x="-325.471" y="1346.01" type="line"/>
      <point x="-361.284" y="1192" type="line"/>
    </contour>
    <contour>
      <point x="-319.687" y="1388.63" type="line"/>
      <point x="-502.627" y="1599.59" type="line"/>
      <point x="-764.771" y="1599.59" type="line"/>
      <point x="-497.863" y="1388.63" type="line"/>
    </contour>
  </outline>
</glyph>
<glyph name="dieresiscomb_macroncomb.case" format="2">
  <anchor x="-516" y="1193" name="_top"/>
  <outline>
    <contour>
      <point x="-512.284" y="1192" type="line"/>
      <point x="-476.471" y="1346.01" type="line"/>
      <point x="-686.471" y="1346.01" type="line"/>
      <point x="-722.284" y="1192" type="line"/>
    </contour>
    <contour>
      <point x="-151.284" y="1192" type="line"/>
      <point x="-115.471" y="1346.01" type="line"/>
      <point x="-325.471" y="1346.01" type="line"/>
      <point x="-361.284" y="1192" type="line"/>
    </contour>
    <contour>
      <point x="-672.967" y="1409.34" type="line"/>
      <point x="-99.9673" y="1409.34" type="line"/>
      <point x="-77.1979" y="1506.68" type="line"/>
      <point x="-649.198" y="1506.68" type="line"/>
    </contour>
  </outline>
</glyph>
<glyph name="eight.numr" format="2">
  <advance width="921"/>
  <outline>
    <contour>
      <point x="441.501" y="439.376" type="curve" smooth="yes"/>
      <point x="654.592" y="439.563"/>
      <point x="920.733" y="549.853"/>
      <point x="920.733" y="797.777" type="curve" smooth="yes"/>
      <point x="920.733" y="872.529"/>
      <point x="886.941" y="937.041"/>
      <point x="817.309" y="976.977" type="curve"/>
      <point x="918.685" y="1041.49"/>
      <point x="977.053" y="1131.6"/>
      <point x="977.053" y="1232.98" type="curve" smooth="yes"/>
      <point x="977.053" y="1372.24"/>
      <point x="845.981" y="1453.14"/>
      <point x="683.165" y="1453.14" type="curve" smooth="yes"/>
      <point x="498.61" y="1453.14"/>
      <point x="269.469" y="1346.86"/>
      <point x="269.469" y="1135.7" type="curve" smooth="yes"/>
      <point x="269.469" y="1077.33"/>
      <point x="288.925" y="1030.22"/>
      <point x="327.837" y="995.409" type="curve"/>
      <point x="181.405" y="922.705"/>
      <point x="98.3299" y="805.968"/>
      <point x="98.4609" y="682.065" type="curve" smooth="yes"/>
      <point x="98.6579" y="495.805"/>
      <point x="288.434" y="439.243"/>
    </contour>
    <contour>
      <point x="581.789" y="1058.9" type="curve" smooth="yes"/>
      <point x="497.821" y="1058.9"/>
      <point x="455.853" y="1085.52"/>
      <point x="455.837" y="1134.67" type="curve" smooth="yes"/>
      <point x="455.805" y="1228.62"/>
      <point x="586.913" y="1273.94"/>
      <point x="663.709" y="1273.94" type="curve" smooth="yes"/>
      <point x="738.461" y="1273.94"/>
      <point x="790.65" y="1250.38"/>
      <point x="790.685" y="1201.23" type="curve" smooth="yes"/>
      <point x="790.754" y="1104.65"/>
      <point x="660.878" y="1058.9"/>
    </contour>
    <contour>
      <point x="463.005" y="614.48" type="curve" smooth="yes"/>
      <point x="400.462" y="614.562"/>
      <point x="290.973" y="629.081"/>
      <point x="290.973" y="711.76" type="curve" smooth="yes"/>
      <point x="290.973" y="840.148"/>
      <point x="458.75" y="893.008"/>
      <point x="561.309" y="893.008" type="curve" smooth="yes"/>
      <point x="660.637" y="893.008"/>
      <point x="732.317" y="861.264"/>
      <point x="732.317" y="798.8" type="curve" smooth="yes"/>
      <point x="732.317" y="672.431"/>
      <point x="566.152" y="614.346"/>
    </contour>
  </outline>
</glyph>
<glyph name="five.dnom" format="2">
  <advance width="921"/>
  <outline>
    <contour>
      <point x="342.409" y="-8" type="curve" smooth="yes"/>
      <point x="617.052" y="-7.9614"/>
      <point x="796.872" y="154.848"/>
      <point x="797.065" y="403.648" type="curve" smooth="yes"/>
      <point x="797.188" y="561.856"/>
      <point x="681.047" y="675.008"/>
      <point x="518.537" y="675.008" type="curve" smooth="yes"/>
      <point x="459.104" y="675.008"/>
      <point x="405.05" y="662.269"/>
      <point x="357.769" y="637.12" type="curve"/>
      <point x="420.577" y="790.72" type="line"/>
      <point x="858.505" y="790.72" type="line"/>
      <point x="894.345" y="969.92" type="line"/>
      <point x="335.241" y="969.92" type="line"/>
      <point x="113.033" y="454.848" type="line"/>
      <point x="275.849" y="411.84" type="line"/>
      <point x="321.823" y="463.943"/>
      <point x="399.598" y="499.904"/>
      <point x="466.313" y="499.904" type="curve" smooth="yes"/>
      <point x="550.865" y="499.904"/>
      <point x="602.558" y="457.539"/>
      <point x="602.505" y="388.288" type="curve" smooth="yes"/>
      <point x="602.405" y="256.616"/>
      <point x="506.974" y="168.178"/>
      <point x="364.937" y="168.128" type="curve" smooth="yes"/>
      <point x="271.502" y="168.095"/>
      <point x="224.649" y="221.104"/>
      <point x="224.649" y="326.848" type="curve"/>
      <point x="38.2812" y="299.2" type="line"/>
      <point x="38.371" y="120.737"/>
      <point x="165.845" y="-8.02482"/>
    </contour>
  </outline>
</glyph>
<glyph name="four.numr" format="2">
  <advance width="921"/>
  <outline>
    <contour>
      <point x="687.952" y="482.679" type="line"/>
      <point x="738.128" y="700.791" type="line"/>
      <point x="891.728" y="700.791" type="line"/>
      <point x="927.568" y="879.991" type="line"/>
      <point x="780.112" y="879.991" type="line"/>
      <point x="911.184" y="1447.29" type="line"/>
      <point x="752.464" y="1447.29" type="line"/>
      <point x="133.968" y="814.455" type="line"/>
      <point x="112.464" y="700.791" type="line"/>
      <point x="545.616" y="700.791" type="line"/>
      <point x="495.44" y="482.679" type="line"/>
    </contour>
    <contour>
      <point x="587.6" y="879.991" type="line"/>
      <point x="365.392" y="879.991" type="line"/>
      <point x="658.256" y="1184.12" type="line"/>
    </contour>
  </outline>
</glyph>
<glyph name="seven.dnom" format="2">
  <advance width="870"/>
  <outline>
    <contour>
      <point x="243.706" y="0" type="line"/>
      <point x="871.418" y="865.28" type="line"/>
      <point x="891.898" y="964.608" type="line"/>
      <point x="195.578" y="964.608" type="line"/>
      <point x="159.738" y="787.456" type="line"/>
      <point x="644.091" y="787.456" type="line"/>
      <point x="49.1465" y="-3.05176e-05" type="line"/>
    </contour>
  </outline>
</glyph>
<glyph name="seven.numr" format="2">
  <advance width="870"/>
  <outline>
    <contour>
      <point x="351.13" y="482.703" type="line"/>
      <point x="978.842" y="1347.98" type="line"/>
      <point x="999.322" y="1447.31" type="line"/>
      <point x="303.002" y="1447.31" type="line"/>
      <point x="267.162" y="1270.16" type="line"/>
      <point x="751.514" y="1270.16" type="line"/>
      <point x="156.57" y="482.703" type="line"/>
    </contour>
  </outline>
</glyph>
<glyph name="six.dnom" format="2">
  <advance width="921"/>
  <outline>
    <contour>
      <point x="351.545" y="-7.74963" type="curve" smooth="yes"/>
      <point x="567.381" y="-7.71773"/>
      <point x="804.153" y="168.204"/>
      <point x="804.153" y="397.754" type="curve" smooth="yes"/>
      <point x="804.153" y="564.461"/>
      <point x="695.669" y="667.066"/>
      <point x="519.411" y="667.066" type="curve" smooth="yes"/>
      <point x="502.391" y="667.066"/>
      <point x="483.867" y="664.609"/>
      <point x="466.335" y="659.522" type="curve"/>
      <point x="781.625" y="970.17" type="line"/>
      <point x="561.465" y="970.17" type="line"/>
      <point x="145.721" y="502.202" type="line" smooth="yes"/>
      <point x="82.6765" y="431.239"/>
      <point x="46.4027" y="342.458"/>
      <point x="46.3927" y="263.61" type="curve" smooth="yes"/>
      <point x="46.3707" y="89.2344"/>
      <point x="188.536" y="-7.77379"/>
    </contour>
    <contour>
      <point x="377.145" y="174.522" type="curve" smooth="yes"/>
      <point x="305.409" y="174.522"/>
      <point x="235.833" y="212.882"/>
      <point x="235.833" y="292.282" type="curve" smooth="yes"/>
      <point x="235.833" y="409.82"/>
      <point x="362.709" y="499.02"/>
      <point x="476.473" y="499.13" type="curve" smooth="yes"/>
      <point x="544.446" y="499.196"/>
      <point x="614.713" y="458.278"/>
      <point x="614.713" y="383.418" type="curve" smooth="yes"/>
      <point x="614.713" y="267.065"/>
      <point x="485.855" y="174.522"/>
    </contour>
  </outline>
</glyph>
<glyph name="three.dnom" format="2">
  <advance width="921"/>
  <outline>
    <contour>
      <point x="362.293" y="-6.0307" type="curve" smooth="yes"/>
      <point x="576.617" y="-5.8527"/>
      <point x="808.757" y="120.081"/>
      <point x="808.757" y="358.513" type="curve" smooth="yes"/>
      <point x="808.757" y="439.409"/>
      <point x="775.989" y="497.777"/>
      <point x="709.429" y="532.593" type="curve"/>
      <point x="709.429" y="537.689" type="line"/>
      <point x="810.805" y="602.201"/>
      <point x="860.981" y="699.505"/>
      <point x="860.981" y="785.521" type="curve" smooth="yes"/>
      <point x="860.981" y="928.881"/>
      <point x="738.101" y="1007.73"/>
      <point x="588.597" y="1007.73" type="curve" smooth="yes"/>
      <point x="403.948" y="1007.73"/>
      <point x="254.444" y="896.219"/>
      <point x="207.669" y="716.913" type="curve"/>
      <point x="367.413" y="694.385" type="line"/>
      <point x="391.446" y="776.783"/>
      <point x="474.814" y="825.457"/>
      <point x="557.877" y="825.457" type="curve" smooth="yes"/>
      <point x="624.437" y="825.457"/>
      <point x="672.565" y="800.881"/>
      <point x="672.565" y="754.801" type="curve" smooth="yes"/>
      <point x="672.565" y="669.021"/>
      <point x="583.439" y="616.561"/>
      <point x="506.677" y="616.561" type="curve" smooth="yes"/>
      <point x="411.445" y="616.561" type="line"/>
      <point x="374.581" y="442.481" type="line"/>
      <point x="478.005" y="442.481" type="line" smooth="yes"/>
      <point x="567.093" y="442.481"/>
      <point x="627.58" y="414.833"/>
      <point x="627.509" y="353.393" type="curve" smooth="yes"/>
      <point x="627.372" y="234.059"/>
      <point x="485.98" y="174.193"/>
      <point x="384.821" y="174.193" type="curve" smooth="yes"/>
      <point x="297.781" y="174.193"/>
      <point x="233.269" y="210.033"/>
      <point x="233.269" y="286.833" type="curve" smooth="yes"/>
      <point x="233.269" y="300.145"/>
      <point x="235.317" y="312.433"/>
      <point x="238.389" y="326.769" type="curve"/>
      <point x="55.093" y="326.769" type="line"/>
      <point x="47.925" y="301.169"/>
      <point x="43.829" y="274.545"/>
      <point x="43.829" y="246.897" type="curve" smooth="yes"/>
      <point x="43.829" y="76.9133"/>
      <point x="191.285" y="-6.17274"/>
    </contour>
  </outline>
</glyph>
<glyph name="three.numr" format="2">
  <advance width="921"/>
  <outline>
    <contour>
      <point x="450.364" y="439.126" type="curve" smooth="yes"/>
      <point x="664.688" y="439.304"/>
      <point x="896.828" y="565.238"/>
      <point x="896.828" y="803.67" type="curve" smooth="yes"/>
      <point x="896.828" y="884.566"/>
      <point x="864.06" y="942.934"/>
      <point x="797.5" y="977.75" type="curve"/>
      <point x="797.5" y="982.846" type="line"/>
      <point x="898.876" y="1047.36"/>
      <point x="949.052" y="1144.66"/>
      <point x="949.052" y="1230.68" type="curve" smooth="yes"/>
      <point x="949.052" y="1374.04"/>
      <point x="826.172" y="1452.89"/>
      <point x="676.668" y="1452.89" type="curve" smooth="yes"/>
      <point x="492.02" y="1452.89"/>
      <point x="342.516" y="1341.38"/>
      <point x="295.74" y="1162.07" type="curve"/>
      <point x="455.484" y="1139.54" type="line"/>
      <point x="479.517" y="1221.94"/>
      <point x="562.886" y="1270.61"/>
      <point x="645.948" y="1270.61" type="curve" smooth="yes"/>
      <point x="712.508" y="1270.61"/>
      <point x="760.636" y="1246.04"/>
      <point x="760.636" y="1199.96" type="curve" smooth="yes"/>
      <point x="760.636" y="1114.18"/>
      <point x="671.51" y="1061.72"/>
      <point x="594.748" y="1061.72" type="curve" smooth="yes"/>
      <point x="499.516" y="1061.72" type="line"/>
      <point x="462.652" y="887.638" type="line"/>
      <point x="566.076" y="887.638" type="line" smooth="yes"/>
      <point x="655.164" y="887.638"/>
      <point x="715.651" y="859.99"/>
      <point x="715.58" y="798.55" type="curve" smooth="yes"/>
      <point x="715.443" y="679.216"/>
      <point x="574.051" y="619.35"/>
      <point x="472.892" y="619.35" type="curve" smooth="yes"/>
      <point x="385.852" y="619.35"/>
      <point x="321.34" y="655.19"/>
      <point x="321.34" y="731.99" type="curve" smooth="yes"/>
      <point x="321.34" y="745.302"/>
      <point x="323.388" y="757.59"/>
      <point x="326.46" y="771.926" type="curve"/>
      <point x="143.164" y="771.926" type="line"/>
      <point x="135.996" y="746.326"/>
      <point x="131.9" y="719.702"/>
      <point x="131.9" y="692.054" type="curve" smooth="yes"/>
      <point x="131.9" y="522.07"/>
      <point x="279.356" y="438.984"/>
    </contour>
  </outline>
</glyph>
<glyph name="two.dnom" format="2">
  <advance width="921"/>
  <outline>
    <contour>
      <point x="714.257" y="0" type="line"/>
      <point x="755.217" y="173.568" type="line"/>
      <point x="301.018" y="173.572" type="line"/>
      <point x="300.103" y="177.564" type="line"/>
      <point x="365.073" y="206.8"/>
      <point x="441.229" y="242.901"/>
      <point x="518.673" y="301.056" type="curve" smooth="yes"/>
      <point x="753.182" y="477.159"/>
      <point x="844.484" y="603.776"/>
      <point x="844.305" y="752.64" type="curve" smooth="yes"/>
      <point x="844.12" y="906.137"/>
      <point x="719.431" y="977.92"/>
      <point x="579.089" y="977.92" type="curve" smooth="yes"/>
      <point x="384.393" y="977.92"/>
      <point x="217.358" y="828.032"/>
      <point x="164.989" y="644.312" type="curve"/>
      <point x="327.139" y="616.804" type="line"/>
      <point x="359.803" y="713.76"/>
      <point x="428.677" y="802.816"/>
      <point x="548.369" y="802.816" type="curve" smooth="yes"/>
      <point x="616.977" y="802.816"/>
      <point x="650.716" y="775.168"/>
      <point x="650.769" y="719.872" type="curve" smooth="yes"/>
      <point x="650.884" y="599.54"/>
      <point x="507.854" y="485.321"/>
      <point x="421.393" y="420.864" type="curve" smooth="yes"/>
      <point x="291.006" y="323.661"/>
      <point x="151.199" y="231.495"/>
      <point x="5.64855" y="158.72" type="curve"/>
      <point x="-24.0474" y="0" type="line"/>
    </contour>
  </outline>
</glyph>
<glyph name="two.numr" format="2">
  <advance width="921"/>
  <outline>
    <contour>
      <point x="807.109" y="475.286" type="line"/>
      <point x="848.069" y="648.854" type="line"/>
      <point x="393.871" y="648.857" type="line"/>
      <point x="392.955" y="652.85" type="line"/>
      <point x="457.925" y="682.086"/>
      <point x="534.082" y="718.186"/>
      <point x="611.525" y="776.342" type="curve" smooth="yes"/>
      <point x="846.034" y="952.445"/>
      <point x="937.336" y="1079.06"/>
      <point x="937.157" y="1227.93" type="curve" smooth="yes"/>
      <point x="936.972" y="1381.42"/>
      <point x="812.283" y="1453.21"/>
      <point x="671.941" y="1453.21" type="curve" smooth="yes"/>
      <point x="477.246" y="1453.21"/>
      <point x="310.21" y="1303.32"/>
      <point x="257.842" y="1119.6" type="curve"/>
      <point x="419.991" y="1092.09" type="line"/>
      <point x="452.655" y="1189.05"/>
      <point x="521.529" y="1278.1"/>
      <point x="641.221" y="1278.1" type="curve" smooth="yes"/>
      <point x="709.829" y="1278.1"/>
      <point x="743.568" y="1250.45"/>
      <point x="743.621" y="1195.16" type="curve" smooth="yes"/>
      <point x="743.736" y="1074.83"/>
      <point x="600.706" y="960.606"/>
      <point x="514.245" y="896.15" type="curve" smooth="yes"/>
      <point x="383.859" y="798.946"/>
      <point x="244.051" y="706.781"/>
      <point x="98.5008" y="634.006" type="curve"/>
      <point x="68.8048" y="475.286" type="line"/>
    </contour>
  </outline>
</glyph>
<glyph name="zero.dnom" format="2">
  <advance width="921"/>
  <outline>
    <contour>
      <point x="347.152" y="-6.41962" type="curve" smooth="yes"/>
      <point x="665.249" y="-6.41962"/>
      <point x="875.536" y="354.825"/>
      <point x="875.536" y="646.892" type="curve" smooth="yes"/>
      <point x="875.536" y="853.689"/>
      <point x="775.354" y="1009.39"/>
      <point x="560.144" y="1009.39" type="curve" smooth="yes"/>
      <point x="230.858" y="1009.39"/>
      <point x="29.6323" y="643.077"/>
      <point x="29.7117" y="347.884" type="curve" smooth="yes"/>
      <point x="29.7683" y="137.713"/>
      <point x="131.5" y="-6.4196"/>
    </contour>
    <contour>
      <point x="367.632" y="177.9" type="curve" smooth="yes"/>
      <point x="261.136" y="177.9"/>
      <point x="219.268" y="260.845"/>
      <point x="219.152" y="367.34" type="curve" smooth="yes"/>
      <point x="218.964" y="540.475"/>
      <point x="336.114" y="820.972"/>
      <point x="532.496" y="820.972" type="curve" smooth="yes"/>
      <point x="637.968" y="820.972"/>
      <point x="676.892" y="739.052"/>
      <point x="676.88" y="633.58" type="curve" smooth="yes"/>
      <point x="676.86" y="470.511"/>
      <point x="563.798" y="177.9"/>
    </contour>
  </outline>
</glyph>
<glyph name="zero.numr" format="2">
  <advance width="921"/>
  <outline>
    <contour>
      <point x="462.533" y="437.105" type="curve" smooth="yes"/>
      <point x="780.63" y="437.105"/>
      <point x="990.917" y="798.35"/>
      <point x="990.917" y="1090.42" type="curve" smooth="yes"/>
      <point x="990.917" y="1297.21"/>
      <point x="890.735" y="1452.91"/>
      <point x="675.525" y="1452.91" type="curve" smooth="yes"/>
      <point x="346.239" y="1452.91"/>
      <point x="145.014" y="1086.6"/>
      <point x="145.093" y="791.409" type="curve" smooth="yes"/>
      <point x="145.15" y="581.238"/>
      <point x="246.881" y="437.105"/>
    </contour>
    <contour>
      <point x="483.013" y="621.425" type="curve" smooth="yes"/>
      <point x="376.517" y="621.425"/>
      <point x="334.649" y="704.369"/>
      <point x="334.533" y="810.865" type="curve" smooth="yes"/>
      <point x="334.345" y="984"/>
      <point x="451.496" y="1264.5"/>
      <point x="647.877" y="1264.5" type="curve" smooth="yes"/>
      <point x="753.349" y="1264.5"/>
      <point x="792.274" y="1182.58"/>
      <point x="792.261" y="1077.11" type="curve" smooth="yes"/>
      <point x="792.242" y="914.036"/>
      <point x="679.179" y="621.425"/>
    </contour>
  </outline>
</glyph>
